<svg width="76" height="90" viewBox="0 0 76 76" fill="none" xmlns="http://www.w3.org/2000/svg"><g filter="url(#filter0_ddddd_2130_526)"><path d="M65.716 20.143h-11.05c0.123 -0.104 0.25 -0.205 0.369 -0.315a9.3 9.3 0 0 0 3.122 -6.75A10.277 10.277 0 0 0 47.586 2.504a9.3 9.3 0 0 0 -6.753 3.122 17.3 17.3 0 0 0 -2.835 4.56 17.3 17.3 0 0 0 -2.835 -4.56 9.3 9.3 0 0 0 -6.753 -3.122 10.275 10.275 0 0 0 -10.57 10.574 9.3 9.3 0 0 0 3.12 6.75c0.12 0.104 0.246 0.205 0.37 0.315H10.28a5.04 5.04 0 0 0 -5.04 5.04v10.08a5.04 5.04 0 0 0 5.04 5.039V60.46a5.04 5.04 0 0 0 5.04 5.04h18.898a1.26 1.26 0 0 0 1.26 -1.26V35.262H10.28v-10.08h25.198v10.08h5.04v-10.08h25.198v10.08H40.518V64.24a1.26 1.26 0 0 0 1.26 1.26h18.898a5.04 5.04 0 0 0 5.04 -5.04V40.302a5.04 5.04 0 0 0 5.04 -5.04v-10.08a5.04 5.04 0 0 0 -5.04 -5.039M24.3 16.05a4.31 4.31 0 0 1 -1.418 -3.15 5.237 5.237 0 0 1 5.222 -5.355h0.155a4.31 4.31 0 0 1 3.15 1.417c2.642 2.986 3.575 7.938 3.902 11 -3.074 -0.325 -8.022 -1.257 -11.012 -3.912m27.403 0c-2.99 2.645 -7.95 3.578 -11.025 3.905 0.375 -3.31 1.415 -8.158 3.934 -10.99a4.31 4.31 0 0 1 3.15 -1.417h0.154a5.235 5.235 0 0 1 5.2 5.377 4.3 4.3 0 0 1 -1.42 3.125z" fill="#D658B3"/><path d="m53.536 18.807 -3.647 3.086h15.827a3.29 3.29 0 0 1 3.29 3.29v10.08a3.29 3.29 0 0 1 -3.29 3.289h-1.75V60.46a3.29 3.29 0 0 1 -3.29 3.29H42.268V37.012h25.198v-13.58H38.768v10.08h-1.54v-10.08H8.53v13.58h25.198V63.75H15.32a3.29 3.29 0 0 1 -3.29 -3.29V38.552h-1.75a3.29 3.29 0 0 1 -3.289 -3.29v-10.08a3.29 3.29 0 0 1 3.29 -3.289H25.9l-3.402 -3.052c-0.085 -0.076 -0.258 -0.222 -0.342 -0.294l-0.043 -0.036a7.55 7.55 0 0 1 -2.524 -5.471v-0.013a8.526 8.526 0 0 1 8.77 -8.773h0.013a7.55 7.55 0 0 1 5.475 2.525 15.6 15.6 0 0 1 2.54 4.09l1.61 3.808 1.612 -3.808a15.6 15.6 0 0 1 2.54 -4.09 7.55 7.55 0 0 1 5.474 -2.525h0.014a8.524 8.524 0 0 1 8.77 8.773v0.013q-0.015 0.637 -0.134 1.259h-1.581q0.161 -0.657 0.174 -1.336a6.986 6.986 0 0 0 -6.938 -7.166h-0.185a6.06 6.06 0 0 0 -4.428 1.993l-0.005 0.006 -0.005 0.005c-1.491 1.676 -2.475 3.858 -3.134 5.954 -0.664 2.117 -1.036 4.272 -1.231 6.002l-0.246 2.168 2.17 -0.23c1.603 -0.172 3.728 -0.502 5.865 -1.15 2.12 -0.64 4.374 -1.63 6.133 -3.186l3.401 -3.01a7.55 7.55 0 0 1 -2.39 4.17l-0.012 0.011 -0.011 0.011a4 4 0 0 1 -0.164 0.14zm-30.411 -1.461 0.006 0.005 0.006 0.006c1.759 1.562 4.01 2.553 6.128 3.196 2.136 0.648 4.258 0.979 5.862 1.148l2.155 0.227 -0.23 -2.154c-0.172 -1.597 -0.503 -3.716 -1.15 -5.849 -0.64 -2.115 -1.628 -4.366 -3.183 -6.123l-0.007 -0.008 -0.006 -0.007a6.06 6.06 0 0 0 -4.428 -1.993H28.1a6.985 6.985 0 0 0 -6.969 7.134 6.06 6.06 0 0 0 1.993 4.418Z" stroke="white" stroke-width="3.5"/></g><defs><filter id="filter0_ddddd_2130_526" x="-0.00982714" y="0.75" width="76.0154" height="91" filterUnits="userSpaceOnUse" color-interpolation-filters="sRGB"><feFlood flood-opacity="0" result="BackgroundImageFix"/><feColorMatrix in="SourceAlpha" type="matrix" values="0 0 0 0 0 0 0 0 0 0 0 0 0 0 0 0 0 0 127 0" result="hardAlpha"/><feOffset/><feGaussianBlur stdDeviation="0.875"/><feColorMatrix type="matrix" values="0 0 0 0 0 0 0 0 0 0 0 0 0 0 0 0 0 0 0.29 0"/><feBlend mode="normal" in2="BackgroundImageFix" result="effect1_dropShadow_2130_526"/><feColorMatrix in="SourceAlpha" type="matrix" values="0 0 0 0 0 0 0 0 0 0 0 0 0 0 0 0 0 0 127 0" result="hardAlpha"/><feOffset dy="3.5"/><feGaussianBlur stdDeviation="1.75"/><feColorMatrix type="matrix" values="0 0 0 0 0 0 0 0 0 0 0 0 0 0 0 0 0 0 0.26 0"/><feBlend mode="normal" in2="effect1_dropShadow_2130_526" result="effect2_dropShadow_2130_526"/><feColorMatrix in="SourceAlpha" type="matrix" values="0 0 0 0 0 0 0 0 0 0 0 0 0 0 0 0 0 0 127 0" result="hardAlpha"/><feOffset dy="7"/><feGaussianBlur stdDeviation="2.625"/><feColorMatrix type="matrix" values="0 0 0 0 0 0 0 0 0 0 0 0 0 0 0 0 0 0 0.15 0"/><feBlend mode="normal" in2="effect2_dropShadow_2130_526" result="effect3_dropShadow_2130_526"/><feColorMatrix in="SourceAlpha" type="matrix" values="0 0 0 0 0 0 0 0 0 0 0 0 0 0 0 0 0 0 127 0" result="hardAlpha"/><feOffset dy="14"/><feGaussianBlur stdDeviation="2.625"/><feColorMatrix type="matrix" values="0 0 0 0 0 0 0 0 0 0 0 0 0 0 0 0 0 0 0.04 0"/><feBlend mode="normal" in2="effect3_dropShadow_2130_526" result="effect4_dropShadow_2130_526"/><feColorMatrix in="SourceAlpha" type="matrix" values="0 0 0 0 0 0 0 0 0 0 0 0 0 0 0 0 0 0 127 0" result="hardAlpha"/><feOffset dy="21"/><feGaussianBlur stdDeviation="2.625"/><feColorMatrix type="matrix" values="0 0 0 0 0 0 0 0 0 0 0 0 0 0 0 0 0 0 0.01 0"/><feBlend mode="normal" in2="effect4_dropShadow_2130_526" result="effect5_dropShadow_2130_526"/><feBlend mode="normal" in="SourceGraphic" in2="effect5_dropShadow_2130_526" result="shape"/></filter></defs></svg>